<svg xmlns="http://www.w3.org/2000/svg" id="Layer_1" data-name="Layer 1" viewBox="0 0 212 78"><defs><style>.cls-1{fill:#fff;}</style></defs><polygon class="cls-1" points="177.94 34.74 177.72 34.04 177.6 33.34 177.55 32.63 177.57 31.87 177.01 31.31 177.07 30.5 176.75 29.85 176.11 29.37 175.81 28.72 175.67 27.96 175.1 27.47 174.92 26.71 174.26 26.3 173.73 25.79 173.64 24.94 172.99 24.54 172.66 23.86 172.09 23.39 171.69 22.75 171.03 22.36 170.56 21.8 169.88 21.43 169.6 20.67 169.12 20.11 168.48 19.7 167.95 19.2 167.47 18.63 166.77 18.31 166.36 17.65 165.57 17.46 165.14 16.81 164.59 16.38 163.96 16.1 163.35 15.78 162.72 15.48 162 15.44 161.37 15.16 160.73 14.91 160.11 14.61 159.32 14.53 158.71 14.15 158.1 13.8 157.46 13.46 156.69 13.55 156.09 14.08 155.28 14.19 154.57 14.25 153.84 14.47 153.26 13.94 152.48 14.08 151.78 13.83 150.96 13.92 150.29 14.38 149.69 14.93 148.85 15.03 148.3 15.7 147.72 16.01 147.06 16.16 146.54 16.61 145.75 16.53 145.35 17.18 144.61 17.26 143.95 17.59 143.46 18.2 142.86 18.64 142.35 19.2 141.57 19.39 141.04 19.92 140.49 20.4 139.95 20.91 139.38 21.38 138.69 21.7 138.04 22.09 137.54 22.64 137.06 23.21 136.48 23.69 135.93 24.2 135.54 24.84 134.98 25.35 134.75 26.1 134.3 26.69 134.1 27.43 133.48 27.93 133.34 28.69 132.87 29.29 132.85 30.07 132.44 30.71 132.37 31.46 131.97 32.13 131.86 32.87 132.12 33.64 132.07 34.37 132.03 34.99 131.86 35.64 131.86 36.3 132.1 36.91 132.04 37.6 132.32 38.36 132.25 39.07 131.94 39.85 132.42 40.63 133.32 40.88 133.63 41.7 133.57 42.27 133.59 42.35 133.16 42.05 132.75 41.46 132.2 41 131.71 40.48 131.16 40.02 130.6 39.57 130.17 38.99 129.56 38.58 129.12 38.03 128.48 37.73 127.86 37.42 127.22 37.16 126.54 36.98 125.84 36.91 125.15 37.05 124.45 37.06 123.82 37.36 123.17 37.6 122.55 37.92 122.05 38.41 121.77 38.74 121.37 39.31 120.99 39.9 120.67 40.54 120.47 41.22 120.36 41.93 120.47 42.64 120.51 43.34 120.69 44.04 120.78 44.77 121.06 45.45 121.42 46.08 121.76 46.72 122.06 47.39 122.44 48.01 122.89 48.58 123.3 49.18 123.73 49.77 124.17 50.35 124.67 50.87 125.19 51.36 125.64 51.93 126.1 52.48 126.65 52.95 127.24 53.36 127.82 53.78 128.38 54.22 129 54.59 129.58 55.02 130.24 55.33 130.93 55.54 131.6 55.79 132.29 55.99 132.95 55.44 132.97 55.72 132.46 56.27 132.09 56.86 131.65 57.4 131.34 58.02 130.83 58.52 130.67 59.24 130.2 59.77 129.95 60.43 129.65 61.05 129.39 61.77 129.67 62.5 129.46 63.26 129.96 63.96 129.49 64.66 129.34 65.39 129.49 66.16 129.12 66.85 128.92 67.57 128.9 68.31 129 69.06 129.14 69.81 128.75 70.53 128.73 71.27 128.74 72.01 128.72 72.76 129.22 73.47 128.95 74.23 129.13 74.95 129.55 77.98 176.66 77.98 176.54 74.98 176.79 74.31 176.88 73.62 176.73 72.91 177.12 72.2 176.88 71.5 176.99 70.77 176.76 70.09 176.48 69.42 176.65 68.66 176.41 67.98 176.15 67.32 176.24 66.58 175.65 65.97 175.97 65.19 175.74 64.52 175.75 63.81 175.64 63.11 175.58 62.41 175.54 61.57 176.39 62.01 176.85 62.75 177.57 63.32 177.63 62.45 177.38 61.75 177.2 61.04 176.85 60.38 176.7 59.65 176.52 58.94 176.05 58.34 176.04 57.54 175.39 57.05 175.12 56.37 174.86 55.67 174.31 55.16 173.77 54.39 174.63 54.77 175.32 54.79 176.01 54.77 176.74 54.86 176.22 54.27 175.74 53.72 175.39 53.05 174.81 52.58 174.3 52.05 173.71 51.58 173.48 50.8 172.92 50.32 172.62 49.63 171.89 49.23 171.58 48.54 171.59 47.8 171.78 47.16 171.81 46.44 172.14 45.81 172.55 45.24 173.13 44.81 173.74 44.43 173.94 43.69 174.32 43.12 175.08 42.96 175.45 42.34 176.15 42.18 176.38 41.5 176.62 40.79 176.65 40.01 176.75 39.22 177.23 38.52 177.62 37.84 177.82 37.08 177.99 36.31 178.07 35.53 177.94 34.74"/><polygon class="cls-1" points="111.94 43.42 111.94 42.63 111.42 42.05 110.96 41.46 110.36 40.99 109.72 40.56 108.94 40.48 108.24 40.14 107.48 39.99 106.71 40.05 105.94 40.07 105.24 39.93 104.53 40.05 103.83 40.03 103.13 39.8 102.42 39.95 101.72 40.01 101.01 39.96 100.31 39.9 99.6 39.88 98.9 39.88 98.2 39.95 97.49 39.86 96.79 40.03 96.08 40.06 95.38 40.14 94.68 40.21 93.98 40.22 93.28 40.35 92.56 40.42 91.84 40.45 91.14 40.61 90.42 40.69 89.72 40.86 89.02 41.03 88.28 40.89 87.58 41.04 86.87 40.96 86.16 41.04 85.47 40.85 84.76 40.69 84.16 40.15 83.83 39.41 84.09 39.32 84.76 39.01 85.47 38.77 86.12 38.41 86.81 38.11 87.44 37.73 88.03 37.27 88.6 36.91 88.95 36.33 89.31 35.76 89.76 35.25 90.29 34.84 90.81 34.31 91.38 33.83 91.82 33.23 92.3 32.66 92.63 32 92.94 31.32 93.05 30.59 92.86 29.84 92.58 29.13 92.33 28.4 92.27 27.72 92.25 27.04 92.38 26.36 92.28 25.69 92.1 25.05 91.72 24.34 91.14 23.79 90.51 23.32 89.96 22.75 89.58 22.14 89.22 21.52 88.66 21.05 88.19 20.51 87.72 19.96 87.26 19.59 86.68 19.3 86.62 18.54 86.56 17.8 86.61 17.05 86.37 16.34 86.27 15.6 86.18 14.87 86.06 14.13 85.78 13.44 85.56 12.73 85.24 12.06 84.85 11.43 84.48 10.79 83.95 10.24 83.48 9.63 82.79 9.28 82.07 9.03 81.31 9.03 80.61 9.42 79.95 9.87 79.44 10.49 78.99 11.03 78.59 11.61 78.19 12.18 77.82 12.79 77.43 13.37 77.03 13.95 76.59 14.5 76.3 15.2 75.53 15.03 74.79 14.91 74.05 14.84 73.31 14.8 72.56 14.79 71.82 14.75 71.07 14.71 70.33 14.79 69.58 14.82 68.84 14.92 68.11 15.03 67.38 15.08 67.03 14.5 66.68 13.89 66.31 13.29 65.93 12.7 65.5 12.15 65.08 11.58 64.6 11.07 64.24 10.45 63.66 9.89 63.05 9.37 62.32 9.03 61.57 9.09 60.85 9.29 60.22 9.7 59.67 10.22 59.16 10.79 58.79 11.38 58.49 12.01 58.17 12.63 57.92 13.28 57.66 13.93 57.54 14.62 57.43 15.3 57.22 15.97 57.09 16.66 57.05 17.35 57 18.05 56.95 18.74 56.95 19.47 56.33 19.89 55.77 20.34 55.26 20.78 54.71 21.19 54.23 21.68 53.74 22.16 53.27 22.66 52.8 23.16 52.47 23.76 52.44 24.42 52.54 25.08 52.34 25.74 52.2 26.47 51.82 27.11 51.57 27.81 51.44 28.54 51.14 29.23 51.25 30.01 51.35 30.8 51.62 31.52 51.98 32.22 51.93 32.99 51.92 33.74 51.94 34.51 52.21 35.21 52.7 35.79 53.38 36.16 54.15 36.27 54.88 36.49 55.51 36.93 55.86 37.15 55.85 37.14 55.72 37.94 55.26 38.55 55.01 39.24 54.75 39.93 54.5 40.62 54.21 41.3 54.13 42.05 53.75 42.7 53.59 43.42 53.27 44.09 53.1 44.8 52.94 45.53 52.47 46.15 52.38 46.89 52.09 47.55 51.83 48.22 51.84 48.97 51.62 49.65 51.42 50.34 51.2 51.02 50.99 51.71 50.74 52.38 50.63 53.14 50.3 53.82 49.94 54.48 49.41 55.05 49.05 55.7 48.93 56.48 48.58 57.14 48.54 57.87 48.5 58.61 48.63 59.33 48.71 60.06 48.83 60.79 48.65 61.5 48.51 62.2 48.4 62.91 48.03 63.55 47.92 64.27 47.65 64.94 47.44 65.63 47.26 66.3 47.09 66.29 46.34 66.31 45.62 66.15 44.91 65.93 44.27 65.56 43.73 65.06 43.15 64.63 42.59 64.16 42.13 63.59 41.56 63.11 41.16 62.49 40.84 61.83 40.47 61.2 40.12 60.55 39.83 59.88 39.67 59.16 39.36 58.52 39.2 57.83 39.18 57.11 38.92 56.45 38.9 55.73 38.81 55.03 38.7 54.34 38.64 53.64 38.48 52.95 38.39 52.25 38.33 51.55 38.2 50.85 38.13 50.15 38.08 49.45 37.88 48.77 37.72 48.08 37.53 47.39 37.52 46.65 37.25 45.98 36.99 45.31 36.85 44.61 36.62 43.92 36.23 43.31 35.98 42.64 35.76 41.95 35.41 41.33 35.11 40.67 34.73 40.07 34.53 39.36 34.17 38.74 33.74 38.16 33.39 37.54 33.03 36.92 32.59 36.35 32.2 35.75 31.78 35.17 31.5 34.49 31.02 33.95 30.64 33.35 30.18 32.8 29.81 32.18 29.45 31.55 28.92 31.05 28.56 30.43 28.19 29.81 27.72 29.27 27.19 28.73 26.73 28.14 26.33 27.49 25.83 26.93 25.2 26.51 24.67 25.95 23.94 25.7 23.23 25.51 22.52 25.23 21.77 25.4 21.05 25.54 20.35 25.8 19.8 26.3 19.39 26.91 19.82 27.47 20.41 27.88 20.87 28.43 21.34 28.98 21.91 29.42 22.36 29.97 22.77 30.56 23.34 31.01 23.68 31.66 24.13 32.21 24.59 32.76 25.09 33.27 25.49 33.86 25.85 34.48 26.22 35.09 26.64 35.67 27.01 36.28 27.44 36.85 27.83 37.45 28.19 38.06 28.51 38.7 28.82 39.34 29.15 39.98 29.49 40.6 29.91 41.19 30.11 41.88 30.4 42.54 30.76 43.16 31.04 43.81 31.31 44.47 31.62 45.12 31.74 45.83 31.98 46.5 32.24 47.17 32.54 47.82 32.74 48.5 33.01 49.17 33.09 49.89 33.42 50.53 33.46 51.26 33.74 51.94 33.93 52.65 33.98 53.38 34.15 54.09 34.34 54.79 34.36 55.52 34.58 56.22 34.67 56.95 34.81 57.66 35.12 58.33 35.2 59.06 35.41 59.76 35.46 60.49 35.67 61.19 36 61.85 36.25 62.53 36.34 63.27 36.75 63.89 36.99 64.58 37.3 65.23 37.62 65.88 37.98 66.52 38.33 67.15 38.72 67.76 39.11 68.37 39.51 68.99 40.01 69.52 40.5 70.06 41.15 70.43 41.68 70.91 42.28 71.31 42.83 71.8 43.53 72.03 44.13 72.45 44.84 72.64 45.53 72.86 46.21 73.12 46.95 73.14 47.18 73.18 47.23 73.56 47.04 74.28 47.04 75.02 46.86 75.75 47.07 76.49 47.07 77.99 87.99 77.98 87.7 76.3 87.55 75.6 87.49 74.88 87.31 74.19 86.9 73.57 86.68 72.9 86.38 72.26 86.05 71.63 85.69 71.01 85.48 70.32 85.3 69.63 85.35 68.93 85.34 68.2 86.03 68.55 86.49 69.12 86.92 69.7 87.21 70.35 87.3 69.66 87.25 68.94 86.98 68.25 87 67.53 86.78 66.84 86.71 66.13 86.48 65.45 86.42 64.72 86.16 64.05 85.81 63.42 85.53 62.76 85.44 62.56 86.06 62.78 86.73 62.98 87.41 63.15 88.06 63.42 88.76 63.55 89.42 63.8 90.01 64.22 90.66 64.49 91.27 64.83 91.93 65.1 92.64 65.21 93.31 65.41 93.99 65.58 94.62 65.59 95.26 65.67 95.91 65.67 96.54 65.56 97.24 65.4 97.94 65.28 98.66 65.19 99.36 65.01 100 64.66 100.52 64.16 101.08 63.73 101.65 63.22 101.95 62.51 102.1 61.77 102.36 61.06 102.27 60.3 102.22 59.55 102.04 58.82 101.89 58.06 101.49 57.4 101.07 56.76 100.44 56.3 99.96 55.71 99.32 55.29 98.71 54.85 98.12 54.35 97.38 54.14 96.76 53.65 96.02 53.43 95.84 53.39 96.07 53.22 96.85 53.33 97.58 53.17 98.33 53.12 99.04 52.84 99.78 52.76 100.52 52.67 101.27 52.63 102.02 52.54 102.73 52.32 103.44 52.09 104.14 51.81 104.88 51.68 105.61 51.52 106.26 51.09 107.03 50.97 107.64 50.48 108.32 50.14 108.98 49.78 109.63 49.38 110.22 48.9 110.62 48.24 111.25 47.77 111.47 47.02 111.94 46.4 112.05 45.65 112.07 44.89 112.15 44.15 111.94 43.42"/><polygon points="86.08 28.67 86.04 29.38 85.89 30.08 85.58 30.72 85.26 31.36 84.81 31.92 84.34 32.47 83.75 32.89 83.25 33.41 82.7 33.86 82.11 34.27 81.56 34.73 80.93 35.09 80.31 35.45 79.75 35.91 79.12 36.26 78.55 36.69 77.91 37.02 77.27 37.35 76.66 37.73 75.99 37.97 75.33 38.27 74.67 38.54 73.98 38.74 73.26 38.8 72.56 38.95 71.84 39 71.14 39.15 70.41 39.13 69.67 39.14 68.92 39.09 68.18 38.97 67.44 38.87 66.7 38.79 65.98 38.62 65.24 38.51 64.53 38.27 63.85 37.96 63.19 37.63 62.51 37.31 61.85 36.98 61.24 36.56 60.58 36.21 59.99 35.81 59.39 35.44 58.84 34.99 58.3 34.53 57.81 34.01 57.23 33.6 56.8 33.02 56.34 32.49 55.87 31.95 55.49 31.35 55.21 30.71 54.93 30.06 54.83 29.36 54.66 28.67 54.75 27.96 54.87 27.27 54.97 26.58 55.16 25.9 55.38 25.23 55.64 24.57 56.02 23.97 56.3 23.32 56.74 22.76 57.15 22.19 57.69 21.72 58.14 21.17 58.72 20.77 59.23 20.27 59.89 19.98 60.49 19.58 61.19 19.38 61.85 19.08 62.55 18.91 63.23 18.68 63.95 18.63 64.67 18.55 65.37 18.38 66.09 18.36 66.81 18.3 67.53 18.3 68.24 18.26 68.97 18.21 69.69 18.18 70.41 18.19 71.14 18.21 71.87 18.27 72.6 18.2 73.32 18.31 74.05 18.24 74.77 18.33 75.5 18.37 76.21 18.45 76.93 18.56 77.65 18.62 78.35 18.8 79.05 18.99 79.75 19.18 80.39 19.52 81.03 19.86 81.67 20.19 82.25 20.6 82.76 21.09 83.28 21.57 83.75 22.11 84.15 22.7 84.49 23.32 84.92 23.89 85.18 24.55 85.5 25.19 85.67 25.88 85.92 26.55 86.02 27.25 86.06 27.96 86.08 28.67"/><polygon class="cls-1" points="67.63 28.03 66.68 28.08 65.76 28.31 64.94 28.76 64.48 29.55 64.8 30.41 65.3 31.18 65.92 31.86 66.69 32.36 67.57 32.59 68.5 32.38 69.31 31.88 69.99 31.22 70.53 30.44 70.87 29.56 70.38 28.77 69.54 28.31 68.6 28.09 67.63 28.03"/><path d="M113.59,43.75l-.15-.53v-.59a1.54,1.54,0,0,0-.38-1l-.93-1.1a1.14,1.14,0,0,0-.24-.25l-.6-.47-.09-.07-.64-.44a1.54,1.54,0,0,0-.69-.24l-.52-.06-.46-.22a1.27,1.27,0,0,0-.36-.12l-.76-.15a1.39,1.39,0,0,0-.41,0l-1.3.08-.53-.11a1.4,1.4,0,0,0-.54,0l-.57.09h-.34l-.49-.17a1.48,1.48,0,0,0-.78,0l-.62.13-.49,0-1.36-.11-1.44,0h-.17l-.53,0-.53-.06a1.18,1.18,0,0,0-.53,0l-.57.13-2,.17H94l-.26,0-.65.12-1.27.1a1.24,1.24,0,0,0-.27,0l-.62.14-.64.07-.19,0L89,39.5l-.41-.08a1.57,1.57,0,0,0-.61,0l-.46.1-.13,0h0l.17-.09L88.2,39l.17-.12.52-.41.5-.32a1.41,1.41,0,0,0,.48-.49l.64-1,.28-.32.42-.32.15-.14.48-.48.51-.45a1.31,1.31,0,0,0,.23-.24l.86-1.1a1.32,1.32,0,0,0,.19-.29l0,0,.33,0,.76,0,.78.15,1.52.12.78.2h.86l.79.12h.08a.5.5,0,0,0,.49-.43.5.5,0,0,0-.42-.56l-.88-.12H98l-.8-.19-1.54-.13-.79-.15h-.11l-.64,0L94.3,32a1.66,1.66,0,0,0,.12-.42l.11-.74a1.47,1.47,0,0,0,0-.59l-.2-.74a.84.84,0,0,0,0-.17L94,28.59l.67-.06.66-.11.69.07h.15l.66-.14.73,0,.1,0,.72-.19a.5.5,0,0,0,.35-.61.51.51,0,0,0-.61-.36l-.67.18-.75.05-.66.14-.67-.07h-.13l-.69.11-.74.07h0l0-.45.1-.51a1.74,1.74,0,0,0,0-.51l-.1-.67a1.29,1.29,0,0,0,0-.19l-.18-.64a1.69,1.69,0,0,0-.13-.31l-.38-.7a1.54,1.54,0,0,0-.27-.36l-.57-.56L92,22.58l-.53-.4-.36-.36-.63-1.05a1.55,1.55,0,0,0-.33-.39l-.47-.4-.86-1-.18-.18-.47-.38-.09-.07,0-.56,0-.63a1.47,1.47,0,0,0-.07-.59l-.2-.58-.29-2.1a1.26,1.26,0,0,0-.1-.33l-.25-.63-.2-.64a1.8,1.8,0,0,0-.08-.21l-.33-.67a.54.54,0,0,0-.07-.13L85.77,10a1.86,1.86,0,0,0-.21-.28l-.47-.5-.43-.56a1.57,1.57,0,0,0-.51-.41l-.68-.35-.2-.08-.72-.25a1.5,1.5,0,0,0-.47-.08h-.76a1.67,1.67,0,0,0-.75.19l-.69.39-.12.07-.66.45a1.75,1.75,0,0,0-.32.29l-.94,1.14a.47.47,0,0,0-.09.12L77,11.32l-.06.09-.7,1.11-.73,1L75,13.42l-3.81-.2h-.23l-1.4.11h-.13l-1.2.16-1-1.61a.36.36,0,0,0-.07-.1l-.82-1.1-.12-.14-.36-.38-.27-.47a1.44,1.44,0,0,0-.27-.34L64,8.24A1.46,1.46,0,0,0,63.69,8L63,7.68a1.44,1.44,0,0,0-.76-.14l-.76.06-.26,0-.72.2A1.51,1.51,0,0,0,60,8l-.63.42a.9.9,0,0,0-.19.15l-.55.52-.1.1L58,9.8a1.43,1.43,0,0,0-.14.2l-.37.59a.64.64,0,0,0-.08.14l-.61,1.2a1.22,1.22,0,0,0-.07.17l-.5,1.28a2.29,2.29,0,0,0-.08.28L56,15l-.17.56a.75.75,0,0,0,0,.16l-.14.68,0,.22-.13,2.05a.06.06,0,0,1,0,0l-.07.06L53.81,20l-.17.14-1.93,2a1.47,1.47,0,0,0-.23.31l-.33.6a1.48,1.48,0,0,0-.18.66l0,.65a1.29,1.29,0,0,0,0,.28L51,25l-.1.34a.83.83,0,0,0,0,.15l-.09.47-.24.41a1.13,1.13,0,0,0-.13.27l-.25.69a1.05,1.05,0,0,0-.06.24l-.1.57v0L48.19,28l-.76-.2h-.11l-.7,0-.82-.17L45,27.5a.51.51,0,0,0-.54.46.49.49,0,0,0,.45.54l.72.06.84.17.73,0L48,29l.81.06h.82a2.54,2.54,0,0,0,0,.39l.2,1.54a2.29,2.29,0,0,0,.08.28l-5.5.56a.5.5,0,0,0-.45.55.51.51,0,0,0,.5.45h.05l3.2-.31,1.55-.21.91-.06.1,0h0l.16.32,0,1.24,0,.77a1.5,1.5,0,0,0,.11.51l.27.7a1.33,1.33,0,0,0,.25.41l.49.58a1.39,1.39,0,0,0,.44.36l.68.37a1.41,1.41,0,0,0,.49.16l.65.09.16.05a1.26,1.26,0,0,0-.13.26l-1,2.67a1.24,1.24,0,0,0-.11.42l0,.44-.22.37a1.33,1.33,0,0,0-.17.43l-.12.56-.25.51a1.76,1.76,0,0,0-.1.3l-.27,1.15-.27.36A1.54,1.54,0,0,0,51,46l-.07.54-.48,1.2a1.45,1.45,0,0,0-.1.55v.5L50,49.89l-.66,2a1.18,1.18,0,0,0-.08.31l-.08.54-.46.88-.4.43a1.66,1.66,0,0,0-.22.3l-.36.66a1.34,1.34,0,0,0-.17.51l-.08.51-.23.43a1.47,1.47,0,0,0-.18.64L47,58.51a1.58,1.58,0,0,0,0,.38l.27,1.83L47,62.42l-.23.39a1.74,1.74,0,0,0-.17.5l-.09.56-.21.51s0,.08,0,.13l-.06.21-.64-.17-.35-.21L44.73,64l-.11-.08-1-.77-.37-.46a1.8,1.8,0,0,0-.2-.19l-.39-.34-.52-.94,0-.09-.66-1.18-.21-.48-.13-.58a1.28,1.28,0,0,0-.11-.33l-.24-.5-.09-.38,0-.55a1.43,1.43,0,0,0-.09-.5l-.17-.43v-.46s0-.1,0-.14l-.21-1.39,0-.64,0-.21L40,52.68l-.14-1.25a.78.78,0,0,0,0-.16l-.12-.64-.11-1.29a1.7,1.7,0,0,0-.06-.31L39,47.18v-.55a1.41,1.41,0,0,0-.11-.54l-.47-1.2-.12-.59a1.09,1.09,0,0,0-.05-.17L38,43.45a1.87,1.87,0,0,0-.15-.32l-.31-.5-.39-1.13a1.08,1.08,0,0,0-.13-.29l-.32-.57-.27-.59-.09-.17-.27-.42L36,39a1.14,1.14,0,0,0-.15-.36L35.46,38a.83.83,0,0,1-.08-.12L35,37.34l-.67-1.16a.76.76,0,0,0-.12-.19l-1.12-1.56-.21-.51a1.54,1.54,0,0,0-.26-.42l-.4-.45-.32-.51-.11-.15-.39-.47-.64-1.1a1.76,1.76,0,0,0-.29-.37l-.37-.34L29.48,29a1.77,1.77,0,0,0-.16-.22l-1-1.08L28,27.27l-.37-.57a.85.85,0,0,0-.14-.19L27,25.94a1.58,1.58,0,0,0-.31-.27l-.49-.32-.41-.43a1.6,1.6,0,0,0-.6-.39l-.82-.27-.63-.17-.63-.25a1.51,1.51,0,0,0-.89-.07l-1.41.3a1,1,0,0,0-.25.07l-.7.26a1.28,1.28,0,0,0-.47.29l-.56.49a1.74,1.74,0,0,0-.25.29l-.4.6a1.49,1.49,0,0,0,.06,1.75l.43.56a1.26,1.26,0,0,0,.33.32l.43.3.8.95a1.45,1.45,0,0,0,.22.21l.44.34.67.91a1.93,1.93,0,0,0,.31.33l.33.26.2.36a1.14,1.14,0,0,0,.15.23l.47.6.93,1,1,1.64L25,36l.38.5.33.55.09.14.4.52,2,3.62a1.19,1.19,0,0,0,.09.15l.27.37.13.45a1.39,1.39,0,0,0,.06.19l.29.65a1.09,1.09,0,0,0,.08.15l1.08,2.29.08.5a1.14,1.14,0,0,0,.06.25l.26.72.55,1.3.17.59.05.12.19.47.05.52a1.7,1.7,0,0,0,.16.53l.19.35,0,.4a1.4,1.4,0,0,0,.11.5l.24.59.12.47,0,.59a2.17,2.17,0,0,0,0,.25L32.84,55l0,.56a1.34,1.34,0,0,0,.06.4l.18.58.23,1.4a2.13,2.13,0,0,0,.11.33l.21.46.05.49a1.38,1.38,0,0,0,.06.26l.16.54,0,.58a1.7,1.7,0,0,0,.06.31l.2.7a2.6,2.6,0,0,0,.1.25l.29.58.17.44.07.57a1.35,1.35,0,0,0,.24.64l.31.47.18.51a.69.69,0,0,0,.05.13l.68,1.41,1.93,3.18.16.21,1,1.07a1.59,1.59,0,0,0,.36.28l.51.29.41.38.17.13.52.34.47.42a1.53,1.53,0,0,0,.52.31l.5.16.43.3a1.85,1.85,0,0,0,.45.21l.67.18,1.14.39v.37l-.13.56a1.47,1.47,0,0,0,0,.75l.21.74A1.5,1.5,0,0,0,47.07,78a1.9,1.9,0,0,0,.4,0,1.5,1.5,0,0,0,1-1.85l-.1-.37.08-.35a1.32,1.32,0,0,0,0-.34v-.54l.15-.53a1.74,1.74,0,0,0,0-.6l-.09-.61,0-.43.16-.56s0-.07,0-.1a1.63,1.63,0,0,0,0-.31l0-1.41v-.62l.09-.63a1.44,1.44,0,0,0-.08-.74s0,0,0,0l-.09-.23.06-.24a1.43,1.43,0,0,0,0-.65l-.07-.4.28-1,.18-.45.06-.15a1.68,1.68,0,0,0,.09-.32l.08-.45.23-.41a1.55,1.55,0,0,0,.18-.51L50,62.5l.31-1.35a1.57,1.57,0,0,0,0-.61l-.19-1.36a.51.51,0,0,0,0-.13l-.1-.54,0-1,.2-.36a1.46,1.46,0,0,0,.16-.5l.08-.5.14-.26.4-.43a1.48,1.48,0,0,0,.22-.29L52,53.79a1.39,1.39,0,0,0,.13-.44l.09-.6,1.06-3.3a1.42,1.42,0,0,0,.08-.5v-.46l.42-1a1.74,1.74,0,0,0,.11-.39l0-.36.24-.31a1.64,1.64,0,0,0,.26-.57l.29-1.26.25-.52a2.13,2.13,0,0,0,.11-.33l.11-.49.26-.44a1.52,1.52,0,0,0,.19-.59l.06-.53.21-.47,0-.1.68-1.85,0-.06.09.06.16.09.69.33.1,0,.72.28.1,0,.64.2,2,.95.15.05.8.27,1.52.4.68.23a1.5,1.5,0,0,0,1-2.84h0L64.51,39l-.13,0-.68-.16-1.36-.42-2-1-.19-.07-.68-.21-1.17-.5-.57-.37a1,1,0,0,0-.3-.14L56.8,36l-.34-.23-.73-.48a1.47,1.47,0,0,0-.4-.19l-.73-.23a1.05,1.05,0,0,0-.24-.06l-.51-.07-.19-.11-.15-.17-.09-.22v-.44l.06-1.45a1.44,1.44,0,0,0-.16-.79L53,30.91l-.18-.47-.13-1,.13-.3a1.7,1.7,0,0,0,.1-.32L53,28.2l.16-.45.3-.51a1.47,1.47,0,0,0,.19-.49l.13-.66.17-.58a1.55,1.55,0,0,0,.05-.64l-.08-.53v-.16l1.74-1.85.46-.34.08-.07,1-.82.56-.37a1.51,1.51,0,0,0,.68-1.27V19.2A18.75,18.75,0,0,1,64,16.69,23.26,23.26,0,0,1,66.22,16a1.47,1.47,0,0,0,1.27.58l.72,0h.11l2.79-.3,2.12.08,1.32.1,1.42.27a1.48,1.48,0,0,0,1.61-.73,31.29,31.29,0,0,1,7.56,2.89l0,.58A1.49,1.49,0,0,0,86,20.64l.42.21.24.2.85,1c0,.06.11.11.16.16l.36.31.65,1.06a2.11,2.11,0,0,0,.19.23l.54.57.19.16.55.41.34.33.2.36.11.39,0,.32-.08.43a1.13,1.13,0,0,0,0,.32l.08,1.45a1.36,1.36,0,0,0,.07.35l.52,1.43.1.36,0,.22-.45.94-.76,1-.44.38-.09.08-.45.46-.45.35a1,1,0,0,0-.21.2l-.45.51A1.24,1.24,0,0,0,88,35l-.54.87-.27.17a.71.71,0,0,0-.14.1l-.5.39-.47.28-.6.26-.14.07-.53.29-.57.2-.15.06-.18.09h0l-.41.19-1.28.39-.12,0-.6.23-.63.15-.16.05-.51.18-.55,0a1,1,0,0,0-.25,0l-.71.18-.15,0-.7.26a1.42,1.42,0,0,0-.52.34h0a1.5,1.5,0,0,0,1,2.57,1.52,1.52,0,0,0,.51-.09l.63-.23L80,42l.62-.05a1.38,1.38,0,0,0,.39-.09l.62-.22.64-.15a1.27,1.27,0,0,0,.18-.06l.62-.2,0,.05.6.53a1.46,1.46,0,0,0,.66.35l1.33.34a1.52,1.52,0,0,0,.56,0l.56-.06.55.06a1.47,1.47,0,0,0,.47,0l.4-.09.43.09a1.58,1.58,0,0,0,.65,0l1.31-.32.62-.07a.9.9,0,0,0,.16,0L92,42l.59,0h.1l.71-.08.12,0,.57-.1h.72l2-.18.28,0,.43-.1.44,0a1.45,1.45,0,0,0,.36,0l.61-.07,2.63.13a2.09,2.09,0,0,0,.25,0l.7-.07.18,0,.31-.07.31.1a1.32,1.32,0,0,0,.44.08l.7,0,.28,0,.44-.07.43.08a1,1,0,0,0,.34,0l1.41-.07.36.07.54.26a1.38,1.38,0,0,0,.5.14l.4,0,.7.52.55.68v.22a1.34,1.34,0,0,0,.06.4l.12.45-.05.46v.12l0,.66,0,.28-.24.31a1.74,1.74,0,0,0-.25.49l-.07.27-.23.17a1.49,1.49,0,0,0-.38.41l-.27.44-.32.27-.49.3-1.3.68a1.59,1.59,0,0,0-.27.18l-.29.23-.38.06a1.54,1.54,0,0,0-.58.23l-.42.27-1.16.23a1,1,0,0,0-.29.08l-.65.26-1.22.39-2.83.28a1.86,1.86,0,0,0-.39.1l-.49.19-.5,0-.23,0-.47.1-.52-.07a1.58,1.58,0,0,0-.65.05l-.38-.19-.11-.05-.71-.28a1.84,1.84,0,0,0-.42-.1l-.63,0L92.92,51l-.56-.28a1.53,1.53,0,0,0-.41-.14l-.69-.13-.59-.15L90.05,50l-.13,0-.73-.21-.15,0-.75-.13-.14,0-.67,0-.66-.13a1.88,1.88,0,0,0-.53,0l-.62.11h-.61c-.11,0-.24,0-.35,0l-1.5.35a1.5,1.5,0,1,0,.7,2.91l1.28-.29h.57l.27,0,.49-.08.47.09.17,0,.68.06.59.1.58.17.64.25.17.06.73.19.11,0,.53.1.49.25.27.11.33.09.4.12a1.37,1.37,0,0,0,.28,0l.56.05,1.09.49a1.12,1.12,0,0,0,.35.12l.69.15.4.12.09.07.31.24a1.41,1.41,0,0,0,.52.26l.42.12.33.29.11.08,1.11.77.34.42a1.73,1.73,0,0,0,.28.26l.41.29.5.81.26,1.15,0,.62s0,.07,0,.1l0,.39-.14.37a2,2,0,0,0-.07.23l-.12.6-.1.25-.79.64-.12.1-.39.37-.3.17-3,.56h-.42l-.55-.06h-.62l-1.11-.31-.2-.05-.53-.08-1-.47-.17-.08-.48-.19-.43-.32A1.7,1.7,0,0,0,90,62.4l-.66-.25L89,62.08l-.54-.1-.5-.21a.86.86,0,0,0-.21-.07l-.62-.16-.61-.19L86,61.17l-.52-.28-.18-.08-.57-.21-.48-.25-.36-.25-.35-.4-.06-.07-.07-.07-1.34-1.32-.29-.47a1.68,1.68,0,0,0-.24-.29L81.07,57l-.41-.48a1.5,1.5,0,1,0-2.28,2l.46.54.11.12.39.36.28.46a1.71,1.71,0,0,0,.21.26l.94,1,.11.11.46.41.41.48a1.81,1.81,0,0,0,.3.25l.59.41.15.08.63.34.17.07.57.22.11.06.15.35s0,.09.07.14l.3.55.15.37,0,.51a1.35,1.35,0,0,0,.08.36l.17.52,0,.25a1.49,1.49,0,0,0-1.42,1.51v.67l0,.64a1.34,1.34,0,0,0,0,.49l.4,1.43a1.79,1.79,0,0,0,.13.32l.33.57.57,1.13.19.58a1.52,1.52,0,0,0,.18.36l.27.41.09.33,0,.59a1.11,1.11,0,0,0,0,.17l.14.7A1.67,1.67,0,0,0,88,78a1.73,1.73,0,0,0,1.17-2L89,75.38,89,74.75a1.09,1.09,0,0,0,0-.25l-.19-.7a1.54,1.54,0,0,0-.19-.44l-.3-.44-.16-.49a1.34,1.34,0,0,0-.07-.18l-.25-.52a1.49,1.49,0,0,0,.92-1.21l.08-.69a2.26,2.26,0,0,0,0-.26l0-.72a1.41,1.41,0,0,0-.11-.46L88.48,68v-.41a1.21,1.21,0,0,0-.07-.5l-.17-.53,0-.56a2.05,2.05,0,0,0-.07-.34l-.17-.5,0-.21.41.07.35.14.42.3a2,2,0,0,0,.32.18l.57.23.54.29.15.08.65.27a1.89,1.89,0,0,0,.34.09l.61.1,1.33.36a1.65,1.65,0,0,0,.32,0h.56l.57.07h.83l.25,0,1.34-.27,1.35-.2.17,0,.7-.17a1.2,1.2,0,0,0,.37-.15l.64-.35a2,2,0,0,0,.29-.22l.47-.45.5-.38.09-.07.57-.51a1.5,1.5,0,0,0,.39-.54l.29-.71a.9.9,0,0,0,.08-.28l.13-.62.23-.61a1.55,1.55,0,0,0,.08-.71l-.09-.71,0-.69a1.93,1.93,0,0,0,0-.27l-.32-1.44a1.72,1.72,0,0,0-.19-.47l-.84-1.35a1.6,1.6,0,0,0-.38-.4l-.48-.34-.36-.44a1.57,1.57,0,0,0-.33-.3l-.37-.25,1.78-.18.26-.05,1.45-.46.11,0,.55-.22,1.36-.27a1.62,1.62,0,0,0,.51-.21l.38-.25.45-.08a1.47,1.47,0,0,0,.72-.32l.48-.39.57-.28,1.38-.81a.91.91,0,0,0,.16-.11l.59-.48a1.7,1.7,0,0,0,.33-.38l.25-.41.4-.3a1.6,1.6,0,0,0,.55-.78l.13-.48.31-.39a1.66,1.66,0,0,0,.29-.7l.11-.76a1.1,1.1,0,0,0,0-.18V45l.07-.69A1.45,1.45,0,0,0,113.59,43.75ZM45.87,69a1.21,1.21,0,0,0,0,.19l0,.75,0,1.24-.06.2-1-.3-.39-.27a1.93,1.93,0,0,0-.38-.19l-.41-.13-.32-.29-.16-.12-.51-.34-.45-.42a1.51,1.51,0,0,0-.26-.18l-.45-.26-.75-.8L39,65.22,38.38,64l-.22-.62a1.26,1.26,0,0,0-.16-.33l-.22-.33-.05-.38a1.23,1.23,0,0,0-.08-.33l-.25-.68a.77.77,0,0,0-.07-.16l-.27-.54-.12-.42,0-.57a1.65,1.65,0,0,0-.06-.32l-.17-.57-.06-.59a1.51,1.51,0,0,0-.13-.46l-.24-.52L36.06,56a1,1,0,0,0-.06-.25l-.15-.51,0-.53a1.27,1.27,0,0,0,0-.34l-.32-1.25,0-.61a1.51,1.51,0,0,0-.05-.28l-.18-.7a1.07,1.07,0,0,0-.07-.19l-.18-.44,0-.47a1.56,1.56,0,0,0-.17-.62l-.21-.4,0-.44a1.86,1.86,0,0,0-.1-.39l-.24-.6L34,47.38l-.07-.18-.27-.58-.43-1.16-.1-.59a1.51,1.51,0,0,0-.13-.41l-.84-1.9a1.09,1.09,0,0,0-.08-.15l-.32-.55-.21-.48-.17-.6a1.56,1.56,0,0,0-.22-.47l-.37-.51-1.23-2.4-.05-.1L28.7,36a.61.61,0,0,0-.07-.1l-.38-.5-.32-.54-.09-.13-.29-.4.21-.06.57-.35.4-.53,0-.09.13.23a.83.83,0,0,0,.13.18l.4.48.33.53a1.39,1.39,0,0,0,.15.19l.31.35.18.44a1.34,1.34,0,0,0,.17.31l.77,1.12.07.1.38.48.66,1.16.09.14.38.52.23.38.14.52a2,2,0,0,0,.17.4l.33.52L34,42l.06.12.28.48.45,1.29a1.26,1.26,0,0,0,.13.26l.29.47.14.43.13.62a1.42,1.42,0,0,0,.07.22L36,47v.46a1.49,1.49,0,0,0,0,.36l.51,1.93L36.7,51s0,.08,0,.12l.27,2,0,.13.13.59.05.59s0,.09,0,.13l.19,1.26,0,.64a1.64,1.64,0,0,0,.1.49l.16.43v.46a1.77,1.77,0,0,0,.05.32l.16.68a1.82,1.82,0,0,0,.11.3l.23.49.12.55a1.14,1.14,0,0,0,.09.26l.29.67.06.13,1,1.89.09.14.39.62a1.63,1.63,0,0,0,.3.34l.46.39.38.46a1.14,1.14,0,0,0,.19.19l1.15.92.49.45a1.57,1.57,0,0,0,.26.19l.64.37a1.73,1.73,0,0,0,.31.14l.71.21.11,0,.39.09a1.53,1.53,0,0,0,.11.63l.13.33Z"/><path class="cls-1" d="M62,28.9a1,1,0,0,1-.82-.43,1,1,0,0,1,.24-1.39l.52-.37-1.14-.55-1.3-.43A1,1,0,0,1,60,23.82l1.49.49.75.34,1.38.71.11.06.62.43a1,1,0,0,1,.44.85,1,1,0,0,1-.48.83l-1.81,1.19A1,1,0,0,1,62,28.9Z"/><path class="cls-1" d="M74.91,28.34a1,1,0,0,1-.35-.06l-1.51-.59-.53-.25L72,27.33l-.57-.06a1,1,0,0,1-.86-.78A1,1,0,0,1,71,25.42l1.86-1.08.1,0,2.59-1.05.11,0,2.07-.49.78-.07a1,1,0,0,1,.18,2L78,24.7l-.58.12-1.81.54L74.14,26l1.11.42a1,1,0,0,1,.59,1.28A1,1,0,0,1,74.91,28.34Z"/><polygon points="157.46 46.42 158.18 46.4 158.9 46.44 159.61 46.36 160.33 46.31 161.04 46.23 161.77 46.23 162.48 46.09 163.15 45.82 163.85 45.67 164.53 45.41 165.23 45.23 165.87 44.87 166.46 44.46 167.06 44.06 167.57 43.54 167.97 42.94 168.36 42.34 168.56 41.66 168.76 40.98 168.63 40.26 168.42 39.56 168.22 38.85 167.88 38.2 167.62 37.52 167.3 36.85 167.02 36.17 166.67 35.53 166.16 34.98 165.87 34.29 165.39 33.73 164.95 33.15 164.54 32.53 164 32.02 163.4 31.59 162.89 31.07 162.29 30.64 161.71 30.2 161.1 29.78 160.37 29.62 159.72 29.24 158.98 29.2 158.25 29.11 157.53 29.15 156.81 29.22 156.09 29.36 155.42 29.66 154.73 29.87 154.07 30.18 153.46 30.58 152.8 30.9 152.24 31.38 151.76 31.94 151.13 32.33 150.66 32.9 150.12 33.39 149.71 34 149.23 34.55 148.81 35.15 148.28 35.67 147.92 36.31 147.62 36.98 147.28 37.63 146.81 38.21 146.67 38.95 146.26 39.58 146.13 40.3 146.27 41.04 146.55 41.71 146.94 42.33 147.43 42.87 147.96 43.35 148.48 43.86 149.09 44.25 149.7 44.65 150.36 44.96 150.98 45.36 151.71 45.49 152.41 45.71 153.1 45.93 153.82 46.03 154.53 46.27 155.26 46.3 155.99 46.4 156.72 46.42 157.46 46.42"/><polygon class="cls-1" points="158.36 31.35 157.37 31.46 156.4 31.7 155.56 32.22 155.1 33.06 155.48 33.95 156.03 34.74 156.69 35.44 157.51 35.95 158.46 36.13 159.43 35.91 160.25 35.35 160.93 34.61 161.5 33.78 161.84 32.85 161.27 32.04 160.37 31.58 159.38 31.39 158.36 31.35"/><polyline class="cls-1" points="145.69 56.19 144.96 56.28 144.28 56.57 143.52 56.42 142.82 56.61 142.1 56.76 141.38 56.73 140.66 56.87 139.93 56.73 139.21 56.94 138.48 56.88 137.75 56.87 137.03 56.83 136.31 56.79 135.61 56.5 134.86 56.63 134.17 56.37 133.42 56.43 132.73 56.17 132.01 56.08 131.28 56.01 130.63 55.62 129.88 55.65 129.15 55.57 128.46 55.31 127.77 55.09 127.09 54.83 126.35 54.76 125.68 54.46 124.95 54.35 124.28 54 123.52 54 122.84 53.71 122.11 53.6 121.42 53.34 120.67 53.32 119.99 53.01 119.29 52.77 118.54 52.83 117.84 52.54 117.11 52.49 116.37 52.5 115.64 52.46 114.96 52.52 114.28 52.52 113.6 52.44 112.93 52.59 112.29 52.81 111.63 52.99 111.11 53.44 110.61 53.87 110.06 54.33 109.85 55.01 109.53 55.62 109.48 56.33 109.13 56.96 109 57.68 109.07 58.42 108.98 59.14 109.17 59.85 109.21 60.57 109.55 61.21 109.67 61.96 110.17 62.5 110.71 62.98 111.22 63.49 111.82 63.89 112.36 64.37 112.96 64.78 113.59 65.1 114.19 65.5 114.84 65.78 115.5 66.03 116.15 66.32 116.87 66.45 117.48 66.82 118.17 67 118.83 67.25 119.49 67.49 120.15 67.76 120.82 68 121.53 68.1 122.26 68.08 122.9 68.47 123.6 68.6 124.33 68.56 125.01 68.79 125.72 68.81 126.44 68.73 127.14 68.83 127.84 69.06 128.55 68.87 129.26 68.97 129.97 68.96 130.68 68.96 131.37 68.72 132.1 68.93"/><path d="M184.25,25.11l-.2-.75-.23-.76-.49-.64-.42-.67-.56-.55-.46-.65-.61-.51-.47-.57-.61-.43-.49-.55-.57-.47-.5-.54-.52-.53-.54-.5-.58-.46-.62-.39-.57-.47-.59-.44-.59-.45-.6-.42-.64-.37-.67-.23-.61-.38-.65-.27-.69-.19-.63-.35-.71-.12-.69-.19-.72,0-.7-.11h-.71l-.68.21-.64.3-.51.51-.14.7,0,.7v.18l-1.25-.6a1.48,1.48,0,0,0-.55-.13l-.44,0-1-.43-.56-.27a1.49,1.49,0,0,0-.51-.14l-.45,0-1.64-.93a1.45,1.45,0,0,0-.89-.17l-.77.09a1.53,1.53,0,0,0-.81.36l-.27.24-1,.09-.22,0a1.5,1.5,0,0,0-1.24-.33l-.38.07-.3-.11a1.46,1.46,0,0,0-.69-.08l-.82.09a1.39,1.39,0,0,0-.58.2l-.27-.59-.52-.47-.59-.39-.71-.12-.7-.09-.7-.15-.72-.07-.71.07-.7.17h-.72l-.7.08-.68.25-.71,0-.68.32-.71.19-.71.2-.7.23-.68.29-.64.37-.64.37-.63.38-.69.28-.64.35-.68.31-.58.46-.66.33-.62.39-.63.49-.74.3-.57.56-.63.48-.64.48-.35.73-.48.62-.29.74L128,21v.8l.31.68.28.68.38.66.61.44.54.52.68.33.7.25.65.36.74.06.16,0a1.49,1.49,0,0,0-.24.49l-.07.27-.25.19a1.49,1.49,0,0,0-.53.91l-.07.39-.24.31a1.48,1.48,0,0,0-.32.88v.37l-.18.28a1.45,1.45,0,0,0-.23.67l0,.41-.23.39a1.3,1.3,0,0,0-.19.53l-.12.74a1.46,1.46,0,0,0,.07.72l.16.48-.06.91-.13.51a1.58,1.58,0,0,0,0,.38v.65a1.54,1.54,0,0,0,.1.56l.11.28,0,.28-.28-.33a1.6,1.6,0,0,0-.52-.41l-1.21-.59-.12,0-.65-.26a.6.6,0,0,0-.19-.06l-.67-.18-.22,0-.7-.07a1.71,1.71,0,0,0-.45,0l-.54.11h-.56a1.43,1.43,0,0,0-.64.15l-.56.27-.58.21-.19.08-.62.32a2.11,2.11,0,0,0-.35.26l-.5.48-.09.11-.28.33-.09.11-.82,1.21a1.09,1.09,0,0,0-.08.15l-.32.63a1.06,1.06,0,0,0-.09.25l-.2.68a1.42,1.42,0,0,0,0,.2l-.11.7a1.69,1.69,0,0,0,0,.45l.09.64,0,.63a1.55,1.55,0,0,0,0,.31l.16.6.08.63a1.34,1.34,0,0,0,.11.39l.28.68a1,1,0,0,0,.07.15l.66,1.2.27.61a1.14,1.14,0,0,0,.1.19l.38.62.11.15.41.52.4.59.91,1.22a.94.94,0,0,0,.1.1l1,1,.1.12h-.36l-.4-.17a2,2,0,0,0-.35-.1l-.58-.09-.56-.2a1.22,1.22,0,0,0-.46-.09l-.45,0-.41-.18-.12,0-.7-.25a1.5,1.5,0,0,0-.63-.08l-.38,0-.35-.15a1.46,1.46,0,0,0-.5-.12l-.73,0h-.8l-.68,0h-.22l-1.14.06-.59-.08a1.75,1.75,0,0,0-.51,0l-.67.16-.14,0-1.21.36a1.59,1.59,0,0,0-.6.32l-1.54,1.32a1.5,1.5,0,0,0-.47.69l-.18.56-.26.51a1.48,1.48,0,0,0-.16.58l0,.37-.19.35a1.54,1.54,0,0,0-.16.47l-.13.71a1.91,1.91,0,0,0,0,.41l.06.58-.07.55a1.5,1.5,0,0,0,0,.56l.15.57,0,.57a1.47,1.47,0,0,0,.17.62l.22.42.08.49a1.51,1.51,0,0,0,.39.8l.5.54.1.1,1,.92a2.11,2.11,0,0,0,.23.19l.51.34.46.41.15.12.6.41.17.11.56.27.51.35a1.19,1.19,0,0,0,.25.13l1.94.82a2,2,0,0,0,.35.1l.43.08.37.22a1.65,1.65,0,0,0,.41.18l.61.15,2.6,1a1.55,1.55,0,0,0,.31.07l.7.1h.54l.27.16a1.67,1.67,0,0,0,.5.19l.69.13a2.17,2.17,0,0,0,.36,0l.43,0,.42.14a1.62,1.62,0,0,0,.44.07l.72,0h.19l.53-.06.38.06.46.15a.13.13,0,0,0,0,.06v2.22a1.48,1.48,0,0,0,.27.89l.05.08v0a1.49,1.49,0,0,0,0,.86l.3,1.37c.16.82.93,2.17,1.76,2s1.34-1.77,1.19-2.58l-.23-1.09.12-.34a1.53,1.53,0,0,0-.18-1.36l-.22-.31V70.93l.21-.4,0-.07h.2a1.4,1.4,0,0,0,.49-.08l.24-.09.27.08a1.5,1.5,0,1,0,.83-2.88l-.73-.21a1.42,1.42,0,0,0-.91,0l-.36.12-.09,0h-1.07l-.6-.08a1.41,1.41,0,0,0-.58,0l-.29.07-.27-.09-.17,0-.09,0-.7-.1a1.53,1.53,0,0,0-.37,0l-.62.07h-.39l-.47-.16a1.46,1.46,0,0,0-.55-.07l-.55,0-.26,0L123,66.8a1.41,1.41,0,0,0-.8-.21h-.61l-.43-.06-2.49-.94-.15,0-.47-.12-.42-.26a1.42,1.42,0,0,0-.53-.2l-.53-.09-1.69-.71-.47-.31-.17-.1-.54-.27-.43-.3-.47-.42a1.09,1.09,0,0,0-.17-.13l-.48-.32-1-.89-.13-.15,0-.3a1.7,1.7,0,0,0-.16-.48l-.18-.34,0-.39a1.35,1.35,0,0,0,0-.29L110.5,59l.06-.44a1.71,1.71,0,0,0,0-.32l0-.54,0-.27.23-.42a1.48,1.48,0,0,0,.18-.61l0-.4.18-.34a1.17,1.17,0,0,0,.09-.24l.09-.26,1-.85,1-.31.34-.08.42.06h1l.57-.05.62,0h.79l.42,0,.46.19a1.44,1.44,0,0,0,.71.12l.44,0,1,.4a1.63,1.63,0,0,0,.57.13l.51,0,.47.17a1.28,1.28,0,0,0,.28.07l.54.09.52.21a1.43,1.43,0,0,0,.58.12h.38l.34.18a1.36,1.36,0,0,0,.48.16l.54.08.49.22a1.48,1.48,0,0,0,.45.11l.54.06.48.19.11,0,1.28.44a2.37,2.37,0,0,0,.36.09l.72.09h.56l.27.16a1.47,1.47,0,0,0,.61.2l1.24.14.53.19a1.28,1.28,0,0,0,.28.07,1,1,0,0,0,.35,0l.42,0,.4.15a1.51,1.51,0,0,0,.76.07l.32-.06.29.13a1.72,1.72,0,0,0,.51.11l2.86.14a1.32,1.32,0,0,0,.52,0l.39-.11.38.07a1.32,1.32,0,0,0,.56,0l.54-.1.55,0a1.29,1.29,0,0,0,.39,0l1.14-.27.42.09a1.59,1.59,0,0,0,.89-.1l.48-.2.52-.07a1.5,1.5,0,1,0-.37-3l-.72.08a1.48,1.48,0,0,0-.41.12l-.26.1-.3-.06a1.68,1.68,0,0,0-.67,0l-1.17.28-.53,0a1.34,1.34,0,0,0-.35,0l-.44.08-.45-.08a1.56,1.56,0,0,0-.68,0l-.47.13-2.41-.11-.45-.19a1.52,1.52,0,0,0-.84-.1l-.35.06-.33-.11-.12,0,.23-.45.37-.41a1.51,1.51,0,0,0,.37-.76l.08-.5.38-.28a1.52,1.52,0,0,0,.68-1l.11-.6.11-.27.82-.87a1.65,1.65,0,0,0,.29-.45l.18-.45,0,0,.27-.31.1-.12.45-.66a1.5,1.5,0,0,0,.19-1.33,1.54,1.54,0,0,0-1-.95l-.5-.16-.32-.29a1.5,1.5,0,0,0-.59-.33l0-.07a1.46,1.46,0,0,0-.56-.78l-.44-.31-.34-.41a1.89,1.89,0,0,0-.2-.2l-.11-.09v0a1.11,1.11,0,0,0,0-.19l-.08-.42,0-.36s0-.08,0-.12a1.45,1.45,0,0,0-.1-.55l-.31-.82a1.51,1.51,0,0,0-1-.92h0a1.55,1.55,0,0,0,0-.21l.07-.71a1.58,1.58,0,0,0-.09-.68l-.16-.44,0-.36a1.45,1.45,0,0,0-.1-.68l-.13-.34.12-.64a1.57,1.57,0,0,0,.05-.3l.09-1.33a1.53,1.53,0,0,0-.08-.6l-.15-.42.27-.51a1.47,1.47,0,0,0,.2-.61l0-.39.21-.33a1.55,1.55,0,0,0,.24-.78v-.28l.16-.21a1.56,1.56,0,0,0,.3-.67l0-.21.18-.14a1.57,1.57,0,0,0,.51-.78l.12-.46.27-.35a1.4,1.4,0,0,0,.24-.47l.11-.36.26-.24a.48.48,0,0,0,.09-.11l.67,0,.69-.27.71-.18.67-.29.67-.3.71-.22.64-.37.56-.49.61-.39.66-.34.53-.49.48-.53.58-.44.58-.43.52-.49.45-.58.46-.54.51-.51.48-.54.37-.62.38-.54L149,17a1.46,1.46,0,0,0,.45-.37l.16-.2.24,0a1.56,1.56,0,0,0,.86-.4l.51-.48.26-.18h.1l.37.13a1.45,1.45,0,0,0,.8.07h0l0,0a1.52,1.52,0,0,0,1.46.33l.57-.18,1.43-.16a1.52,1.52,0,0,0,.78-.36l.18-.16,1.28.76a1.47,1.47,0,0,0,.64.21l.52.06.38.18.11,0,1.21.5a1.33,1.33,0,0,0,.53.13l.43,0,.89.46.12.05.46.2.2.16.3.45a1.49,1.49,0,0,0,.9.63l.19,0,.08.14a1.61,1.61,0,0,0,.51.46l.21.4.26.67.42.6.25.69.43.57.35.64.49.53.4.59.35.63.57.48.5.54.43.59.52.52.56.48.67.33.53.53.65.35.65.35.13.05a2.17,2.17,0,0,0,.07.24l.31.65a1.45,1.45,0,0,0,.46.58l.33.24,0,.38a1.48,1.48,0,0,0,.43,1.16l.11.12v.26l.06.71a.66.66,0,0,0,0,.14l.12.69a1.55,1.55,0,0,0,0,.21l.2.61.08.48-.05.49-.3,1.2-.7,1.11a1.57,1.57,0,0,0-.25.65l-.1.79s0,.09,0,.13l0,.56-.14.41a1.44,1.44,0,0,0-.82.65l0,.06-.12,0a1.5,1.5,0,0,0-.93.62l-.38.56a1.37,1.37,0,0,0-.21.46l-.05.18-.11.07-.09.06-.58.42a1.44,1.44,0,0,0-.32.33l-.42.56-.11.19-.33.63a1.41,1.41,0,0,0-.17.63l0,.55-.13.47a1.32,1.32,0,0,0-.06.39l0,.73a1.66,1.66,0,0,0,.14.66l.32.68a1.46,1.46,0,0,0,.63.69l.28.15.09.22a1.47,1.47,0,0,0,.41.55l.23.2.1.35a1.58,1.58,0,0,0,.51.76l.35.26a1.76,1.76,0,0,0-.53.41,1.52,1.52,0,0,0-.06,1.82l.54.76a1.5,1.5,0,0,0,.2.23l.29.27.43,1.09a1.5,1.5,0,0,0,.48.63l.07,0v.08a1.56,1.56,0,0,0,.32.9l.27.35.12.47a1.63,1.63,0,0,0-.53.21,1.5,1.5,0,0,0-.69,1.34l.1,1.6s0,.07,0,.11l.09.57v.58a1.36,1.36,0,0,0,.08.49l.05.15-.11.25a1.49,1.49,0,0,0,.31,1.62l.09.1v0a1.48,1.48,0,0,0,.09.72l.34.9-.08.33a1.49,1.49,0,0,0,.08.91l.36.91-.06.38a1.5,1.5,0,0,0,.07.7l0,.07-.07.13a1.5,1.5,0,0,0-.15,1l.09.45,0,.27-.19.5A1.44,1.44,0,0,0,175,75v.72c0,.83.65,2.29,1.48,2.3h.14c.82,0,1.37-1.43,1.38-2.25v-.47l.16-.41a1.37,1.37,0,0,0,.08-.35l.09-.69a1.39,1.39,0,0,0,0-.5l0-.16.12-.23a1.47,1.47,0,0,0,.11-1.21l-.12-.35.05-.37a1.61,1.61,0,0,0-.06-.69l-.23-.69,0-.1-.1-.23.07-.29a1.56,1.56,0,0,0-.05-.83l-.38-1,0-.36a1.48,1.48,0,0,0-.32-1.13,1.52,1.52,0,0,0,0-.82,1.44,1.44,0,0,0,.76-.12,1.52,1.52,0,0,0,.89-1.27l.05-.87A1.37,1.37,0,0,0,179,62l-.23-.64-.16-.64a1.4,1.4,0,0,0-.13-.34l-.25-.47-.3-1.29a1.42,1.42,0,0,0-.27-.55l-.16-.2v-.3a1.53,1.53,0,0,0-.59-1.17,1.52,1.52,0,0,0,1.11-.78,1.5,1.5,0,0,0-.2-1.69l-.88-1-.27-.52a1.54,1.54,0,0,0-.36-.44l-.52-.43-.45-.48-.15-.13L175,50.7l-.09-.32a1.51,1.51,0,0,0-.46-.71l-.31-.26L174,49a1.49,1.49,0,0,0-.66-.72l-.26-.15.13-.59a1.43,1.43,0,0,0,.06-.35l0-.39.33-.53.92-.6a1.54,1.54,0,0,0,.65-.89l.1-.37.1,0a1.47,1.47,0,0,0,1-.69l0-.08.08,0a1.49,1.49,0,0,0,1.08-1l.47-1.39a1.41,1.41,0,0,0,.07-.41l0-.72.05-.37.27-.4a.61.61,0,0,0,.07-.1l.39-.69a2.28,2.28,0,0,0,.15-.36l.38-1.57a.57.57,0,0,0,0-.18l.08-.78a1.4,1.4,0,0,0,0-.41l-.13-.79,0-.2-.19-.6-.13-1.1v-.68a1.49,1.49,0,0,0-.42-1.08l-.08-.09v-.12a1.83,1.83,0,0,0,0-.47l.69,0,.72-.1.72-.19.75-.09.7-.27.66-.37.5-.57.56-.49.27-.7.23-.74.12-.78ZM133.64,45.62a1.5,1.5,0,0,0,.29.27l.19.13.11.36a1.52,1.52,0,0,0,1,1l.27.07a.93.93,0,0,1-.05.1l-.17.42-.8.85a1.57,1.57,0,0,0-.3.47l-.27.67a1.52,1.52,0,0,0-.09.28l0,.1-.13.08a1.55,1.55,0,0,0-.53.58l-.34.63a1.9,1.9,0,0,0-.15.46l-.05.31-.2.22a1.61,1.61,0,0,0-.21.3l-.63,1.27-.82-.27-.42-.19-.46-.34-.12-.08-2.21-1.55-.39-.34-.8-1a1.14,1.14,0,0,0-.15-.16l-.91-.92-1.17-1.62-.08-.1-.4-.5-.28-.45-.25-.57a.37.37,0,0,0,0-.11l-.67-1.22-.17-.4-.06-.53a1.77,1.77,0,0,0,0-.2l-.15-.55,0-.55a.66.66,0,0,0,0-.14l-.07-.49.06-.38.13-.47.22-.44.66-1,.49-.51.34-.18.55-.2a.42.42,0,0,0,.14-.06l.32-.15h.37a1.36,1.36,0,0,0,.29,0l.47-.1.35,0,.48.12,1.42.66.23.28a1.47,1.47,0,0,0,.32.29l.39.27.29.38a1.6,1.6,0,0,0,.25.27l1,.83.41.45.16.15.38.31.29.42a1.33,1.33,0,0,0,.28.3l0,.46a1.51,1.51,0,0,0,.54,1.08l.5.42Z"/><path d="M149.79,30.06a1,1,0,0,1-.33-1.95l1.4-.48a.17.17,0,0,1,.1,0l.51-.12-.39-.32-.48-.31-1.13-.49-1.22-.28-.61,0a1,1,0,1,1,.1-2l.7,0a.58.58,0,0,1,.19,0l1.36.3.19.06,1.3.58.13.07.6.38.09.06,1.11.92a1,1,0,0,1,.29.42l.25.68a1,1,0,0,1-.39,1.19l-.4.26-.25.11-.7.22-.74.18-1.34.47A1,1,0,0,1,149.79,30.06Z"/><path d="M165.46,30.53a1,1,0,0,1-.67-.25l-.48-.43-.5-.33L162.69,29l-.62-.17a1,1,0,0,1-.73-1.13l.12-.71a1,1,0,0,1,.36-.62l.57-.46.13-.09,1-.65a1,1,0,0,1,1.4.27,1,1,0,0,1-.27,1.39l-.8.51.89.45.1.06.6.39.11.09.54.48a1,1,0,0,1-.67,1.75Z"/><path d="M104.18,30.58a1,1,0,0,1-.56-.17,1,1,0,0,1-.26-1.39l.4-.58a.83.83,0,0,1,.2-.22l1-.79.32-.48a1,1,0,0,1,.25-.26l.5-.36.87-1a1.05,1.05,0,0,1,.72-.33,1.2,1.2,0,0,1,.74.3l1.37,1.36.84-1.17a.8.8,0,0,1,.15-.17l.54-.51.2-.14.6-.33.55-.4a.88.88,0,0,1,.4-.17l.73-.14a1,1,0,0,1,.49,0l.63.2a1,1,0,0,1,.62.56l.46,1.1.34.46.09-.05.33-.42a1,1,0,0,1,.24-.22l.49-.31.84-1,.07-.07.52-.49.43-.48a1.08,1.08,0,0,1,.32-.24l.6-.27a1,1,0,0,1,1,.07l.5.33a.8.8,0,0,1,.17.15l.48.5a.76.76,0,0,1,.11.14l1.17,1.76.06.11.61,1.19a1,1,0,1,1-1.75,1l-1-1.81-1-1.32-.27.3-.54.5-.88,1.05a.74.74,0,0,1-.23.2l-.48.31-.34.44a1.18,1.18,0,0,1-.27.23l-.56.34a1.15,1.15,0,0,1-.52.14h-.6a1,1,0,0,1-.74-.34l-.43-.47-.44-.6a1.32,1.32,0,0,1-.12-.2l-.32-.76-.21,0-.42.3-.11.07-.55.3-.37.35L111,28.34a1.1,1.1,0,0,1-.42.38l-.53.24a1,1,0,0,1-1.11-.17l-1.32-1.3-.26.28a.93.93,0,0,1-.15.13l-.43.31-.29.44a1.12,1.12,0,0,1-.18.2l-1,.84-.32.46A1,1,0,0,1,104.18,30.58Z"/><path d="M103.5,22a1,1,0,0,1-.67-.26,1,1,0,0,1-.07-1.41l.9-1.05.31-.6.09-.14.45-.61.67-1.17.26-.62a1,1,0,0,1,1.83,0l.2.42.38.39a1.19,1.19,0,0,1,.16.23l.6,1.17.36.46a.78.78,0,0,1,.18.35l.24.51.2-.12.28-.44.43-.55.21-.57a.48.48,0,0,1,.08-.16l.38-.66,1-2a1,1,0,0,1,.88-.57,1,1,0,0,1,.91.53l.33.62.49.43a1.46,1.46,0,0,1,.16.19l.32.48.24.12h0l.19-.16.42-.48a.93.93,0,0,1,.18-.16l.41-.29.65-1.09.06-.09.45-.56L118.3,13a1,1,0,0,1,1.62-.13l.48.56a.44.44,0,0,1,.08.11l.36.57.46.48a.58.58,0,0,1,.11.15l.33.5.48.36a1.21,1.21,0,0,1,.16.16l.43.52.52.43a1,1,0,1,1-1.28,1.54l-.59-.49-.13-.13-.42-.5-.52-.41a1,1,0,0,1-.24-.25l-.37-.57-.46-.48a1.13,1.13,0,0,1-.1-.13l-.43.54L118.12,17a1.18,1.18,0,0,1-.3.33l-.5.35-.39.45a1.14,1.14,0,0,1-.11.11l-.51.43a1,1,0,0,1-.59.23l-.63,0a1.08,1.08,0,0,1-.53-.12l-.7-.38a1,1,0,0,1-.36-.32l-.47-.65-.3.62-.37.65-.23.64a.94.94,0,0,1-.15.28l-.48.61-.35.55a1.12,1.12,0,0,1-.33.32l-.65.38a1,1,0,0,1-.5.14h-.73a1,1,0,0,1-.72-.3l-.55-.56a1,1,0,0,1-.24-.43l-.14-.49-.32-.39a1.18,1.18,0,0,1-.11-.19l-.37-.75-.32.52-.46.62-.32.62a.82.82,0,0,1-.11.17l-.48.6-.56.62A1,1,0,0,1,103.5,22Z"/></svg>